Coordinates
version=1
nRows=5
nColumns=40
inDegrees=yes

Units are S.I. units (second, meters, Newtons, ...)
Angles are in degrees.

endheader
time	pelvis_tilt	pelvis_list	pelvis_rotation	pelvis_tx	pelvis_ty	pelvis_tz	hip_flexion_r	hip_adduction_r	hip_rotation_r	knee_angle_r	knee_angle_r_beta	ankle_angle_r	subtalar_angle_r	mtp_angle_r	hip_flexion_l	hip_adduction_l	hip_rotation_l	knee_angle_l	knee_angle_l_beta	ankle_angle_l	subtalar_angle_l	mtp_angle_l	lumbar_extension	lumbar_bending	lumbar_rotation	arm_flex_r	arm_add_r	arm_rot_r	elbow_flex_r	pro_sup_r	wrist_flex_r	wrist_dev_r	arm_flex_l	arm_add_l	arm_rot_l	elbow_flex_l	pro_sup_l	wrist_flex_l	wrist_dev_l
     31.34328571	     -3.91561457	     -2.50861474	     -3.51312654	      1.08267749	      0.93035620	      0.45971624	     33.78451531	     -6.45415423	     -5.55689257	     65.10313032	     65.10313032	     -0.12525688	    -18.04857112	      5.27084186	     11.38260176	     -4.96636102	     -7.17535789	     20.84352598	     20.84352598	     14.50741188	    -14.33086087	     -0.84305926	    -11.14544161	      4.47204163	      2.36604494	      3.85918555	    -12.27398219	     -5.92091526	     69.77970834	     45.72753392	      0.00000000	      0.00000000	     11.18831113	    -10.22467842	      2.50537470	     57.19725238	     45.91940260	      0.00000000	      0.00000000
     31.35407143	     -3.86368162	     -2.65385335	     -3.93916893	      1.08267705	      0.93088737	      0.46036936	     34.36405452	     -6.04292808	     -5.66241632	     62.63386836	     62.63386836	      0.75264163	    -17.98915330	      5.35625398	     10.15489096	     -5.08844263	     -7.59425060	     19.95897870	     19.95897870	     14.78142409	    -14.09909725	     -0.84970306	    -11.30460417	      4.74569473	      3.12604708	      2.37161434	    -12.87986078	     -5.92233200	     66.92339736	     45.81210427	      0.00000000	      0.00000000	     12.51356797	     -9.93758129	      2.36820744	     59.02182256	     45.97318683	      0.00000000	      0.00000000
     31.36485714	     -3.88608061	     -2.67543179	     -4.34721519	      1.08256159	      0.93105950	      0.46116529	     34.95738059	     -5.71633138	     -5.72718945	     59.93000059	     59.93000059	      1.57231538	    -17.80634688	      5.43441870	      9.06541188	     -5.10108993	     -8.11096214	     19.13095863	     19.13095863	     14.81199848	    -13.82634877	     -1.42414296	    -11.30943790	      4.76026462	      2.69285916	      3.36197198	    -12.28556897	     -6.75865188	     59.13341731	     46.08615631	      0.00000000	      0.00000000	     12.65705889	    -10.82682170	      2.72156995	     62.82635357	     46.03844951	      0.00000000	      0.00000000
     31.37564286	     -3.79835219	     -2.83978434	     -4.72105366	      1.08261374	      0.93128850	      0.46198227	     35.16608134	     -5.24612881	     -5.93129476	     56.78632957	     56.78632957	      2.28993493	    -17.57644978	      5.52384194	      7.86331365	     -5.22492724	     -8.46467286	     18.36539849	     18.36539849	     15.05566810	    -13.65675112	     -1.48016546	    -11.53907180	      5.05383915	      3.34477234	      2.19156452	    -12.86994782	     -6.74206221	     56.26892748	     46.16916614	      0.00000000	      0.00000000	     13.81621973	    -10.63308581	      2.43849852	     64.99822591	     46.11303333	      0.00000000	      0.00000000
     31.38642857	     -3.87117036	     -2.93260588	     -5.01367325	      1.08265545	      0.93107892	      0.46291419	     35.39939589	     -4.85127325	     -6.20546040	     53.36490986	     53.36490986	      2.64939485	    -17.15130915	      4.64767490	      6.86503435	     -5.29227853	     -8.82089290	     17.59202053	     17.59202053	     15.07307861	    -13.48961960	     -2.11415004	    -11.48380971	      5.16177165	      2.38719413	      3.61170146	    -12.36637642	     -7.14307747	     48.43593443	     46.41621898	      0.00000000	      0.00000000	     13.48253152	    -11.69160311	      2.00352065	     69.24721032	     46.27792317	      0.00000000	      0.00000000
